# xmcd CD database file
# Copyright (C) 1996 Ti Kan
#
# Track frame offsets:
#  150
#  13297
#  27790
#  40957
#  55282
#  67657
#  80882
#  94585
#  107512
#  120852
#  135905
#  148842
#  161830
#  175745
#  188665
#  200437
#  212060
#  225562
#  237690
#  251940
#  265085
#  278200
#  290910
#  304037
#  317415
#
# Disc length: 4408 seconds
#
# Revision: 1
# Processed by: cddbd v1.4b41PL1 Copyright (c) Steve Scherf et al.
# Submitted via: CDWizzard Release:4.12
#
DISCID=67113619
DTITLE=Big Maceo - The King Of Chicago Blues Piano
DYEAR=1900
DGENRE=
TTITLE0=Worried Life Blues
TTITLE1=Ramblin' Mind Blues
TTITLE2=County Jail Blues
TTITLE3=Can't You Read
TTITLE4=So Long Baby
TTITLE5=Texas Blues
TTITLE6=Tuff Luck Blues
TTITLE7=I Got The Blues
TTITLE8=Bye Bye Baby
TTITLE9=Poor Kelly Blues
TTITLE10=Some Sweet Day
TTITLE11=Anytime For You
TTITLE12=My Last Go Round
TTITLE13=Since You Been Gone
TTITLE14=Kidman Blues
TTITLE15=I'm So Worried
TTITLE16=Things Have Changed
TTITLE17=My Own Troubles
TTITLE18=Maceo's 32-20
TTITLE19=Texas Stomp
TTITLE20=Winter Time Blues
TTITLE21=Detroit Jump
TTITLE22=Won't Be A Fool No More
TTITLE23=Big Road Blues
TTITLE24=Chicago Breakdown
EXTD=
EXTT0=
EXTT1=
EXTT2=
EXTT3=
EXTT4=
EXTT5=
EXTT6=
EXTT7=
EXTT8=
EXTT9=
EXTT10=
EXTT11=
EXTT12=
EXTT13=
EXTT14=
EXTT15=
EXTT16=
EXTT17=
EXTT18=
EXTT19=
EXTT20=
EXTT21=
EXTT22=
EXTT23=
EXTT24=
PLAYORDER=
